<?xml version="1.0" encoding="utf-8"?>
<!-- Generator: Adobe Illustrator 16.0.0, SVG Export Plug-In . SVG Version: 6.00 Build 0)  -->
<!DOCTYPE svg PUBLIC "-//W3C//DTD SVG 1.1//EN" "http://www.w3.org/Graphics/SVG/1.1/DTD/svg11.dtd">
<svg version="1.1" id="Layer_1" xmlns="http://www.w3.org/2000/svg" xmlns:xlink="http://www.w3.org/1999/xlink" x="0px" y="0px"
	 width="640px" height="640px" viewBox="0 0 640 640" enable-background="new 0 0 640 640" xml:space="preserve">
<path d="M479.25,319.5c88.23,0,159.75-71.522,159.75-159.75S567.48,0,479.25,0C391.023,0,319.5,71.522,319.5,159.75
	C319.5,71.522,247.978,0,159.75,0S0,71.522,0,159.75S71.522,319.5,159.75,319.5C71.522,319.5,0,391.023,0,479.25
	C0,567.48,71.522,639,159.75,639S319.5,567.48,319.5,479.25c0,88.23,71.523,159.75,159.75,159.75C567.48,639,639,567.48,639,479.25
	C639,391.023,567.48,319.5,479.25,319.5z"/>
</svg>
